P3
64 48
255
49 48 55 50 55 48 50 52 50 49 48 55 50 55 48 50 52 50 49 48 55 50 55 48 50 52 50 49 48 55 50 55 48 50 52 50 49 48 55 50 55 48 50 52 50 49 48 55 50 55 48 50 52 50 49 48 55 50 55 48 50 52 50 49 48 55 50 55 48 50 52 50 49 48 55 50 55 48 50 52 50 49 48 55 50 55 48 50 52 50 49 48 55 50 55 48 50 52 50 49 48 55 50 55 48 50 52 50 49 48 55 50 55 48 50 52 50 49 48 55 50 55 48 50 52 50 49 48 55 50 55 48 50 52 50 49 48 55 50 55 48 50 52 50 49 48 55 50 55 48 50 52 50 49 48 55 50 55 48 50 52 50 49 48 55 50 55 48 50 52 50 49 48 55 50 55 48 50 52 50 49 48 55 50 55 48 50 52 50 49 48 55 50 55 48 50 52 50 49 48 55 50 55 48 50 52 50 49 48 55 50 55 48 50 52 50 49 48 55 50 55 48 50 52 50 49 48 55 50 55 48 50 52 50 49 48 55 50 55 48 50 52 50 49 48 55 50 55 48 50 52 50 49 48 55 50 55 48 50 52 50 49 48 55 50 55 48 50 52 50 49 48 55 50 55 48 50 52 50 49 48 55 50 55 48 50 52 50 49 48 55 50 55 48 50 52 50 49 48 55 50 55 48 50 52 50 49 48 55 50 55 48 50 52 50 49 48 55 50 55 48 50 52 50 49 48 55 50 55 48 50 52 50 49 48 55 50 55 48 50 52 50 49 48 55 50 55 48 50 52 50 49 48 55 50 55 48 50 52 50 49 48 55 50 55 48 50 52 50 49 48 55 50 55 48 50 52 50 49 48 55 50 55 48 50 52 50 49 48 55 23 232 37 23 232 37 23 232 37 23 232 37 23 232 37 23 232 37 50 55 48 50 52 50 49 48 55 50 55 48 50 52 50 49 48 55 50 55 48 50 52 50 49 48 55 50 55 48 50 52 50 49 48 55 50 55 48 50 52 50 49 48 55 50 55 48 50 52 50 49 48 55 50 55 48 50 52 50 49 48 55 50 55 48 50 52 50 49 48 55 50 55 48 50 52 50 49 48 55 50 55 48 50 52 50 49 48 55 50 55 48 50 52 50 49 48 55 50 55 48 50 52 50 49 48 55 50 55 48 50 52 50 49 48 55 50 55 48 50 52 50 49 48 55 50 55 48 50 52 50 49 48 55 50 55 48 50 52 50 49 48 55 50 55 48 50 52 50 49 48 55 50 55 48 50 52 50 49 48 55 50 55 48 50 52 50 49 48 55 50 55 48 23 232 37 23 232 37 23 232 37 23 232 37 23 232 37 23 232 37 50 52 50 49 48 55 50 55 48 50 52 50 49 48 55 50 55 48 50 52 50 49 48 55 50 55 48 50 52 50 49 48 55 50 55 48 50 52 50 49 48 55 50 55 48 50 52 50 49 48 55 50 55 48 50 52 50 49 48 55 50 55 48 50 52 50 49 48 55 50 55 48 50 52 50 49 48 55 50 55 48 50 52 50 49 48 55 50 55 48 50 52 50 49 48 55 50 55 48 50 52 50 49 48 55 50 55 48 50 52 50 49 48 55 50 55 48 50 52 50 49 48 55 50 55 48 50 52 50 49 48 55 50 55 48 50 52 50 49 48 55 50 55 48 50 52 50 49 48 55 50 55 48 50 52 50 49 48 55 50 55 48 50 52 50 49 48 55 50 55 48 50 52 50 23 232 37 23 232 37 23 232 37 23 232 37 23 232 37 23 232 37 49 48 55 50 55 48 50 52 50 49 48 55 50 55 48 50 52 50 49 48 55 50 55 48 50 52 50 49 48 55 50 55 48 50 52 50 49 48 55 50 55 48 50 52 50 49 48 55 50 55 48 50 52 50 49 48 55 50 55 48 50 52 50 49 48 55 50 55 48 50 52 50 49 48 55 50 55 48 50 52 50 49 48 55 50 55 48 50 52 50 49 48 55 50 55 48 50 52 50 49 48 55 50 55 48 50 52 50 49 48 55 50 55 48 50 52 50 49 48 55 50 55 48 50 52 50 49 48 55 50 55 48 50 52 50 49 48 55 50 55 48 50 52 50 49 48 55 50 55 48 50 52 50 49 48 55 50 55 48 50 52 50 49 48 55 50 55 48 50 52 50 49 48 55 23 232 37 23 232 37 23 232 37 23 232 37 23 232 37 23 232 37 50 55 48 50 52 50 49 48 55 50 55 48 50 52 50 49 48 55 50 55 48 50 52 50 49 48 55 50 55 48 50 52 50 49 48 55 50 55 48 50 52 50 49 48 55 50 55 48 50 52 50 49 48 55 50 55 48 50 52 50 49 48 55 50 55 48 50 52 50 49 48 55 50 55 48 50 52 50 49 48 55 50 55 48 50 52 50 49 48 55 50 55 48 50 52 50 49 48 55 50 55 48 50 52 50 49 48 55 50 55 48 50 52 50 49 48 55 50 55 48 50 52 50 49 48 55 50 55 48 50 52 50 49 48 55 50 55 48 50 52 50 49 48 55 50 55 48 50 52 50 49 48 55 50 55 48 50 52 50 49 48 55 50 55 48 50 52 50 49 48 55 50 55 48 23 232 37 23 232 37 23 232 37 23 232 37 23 232 37 23 232 37 50 52 50 49 48 55 50 55 48 50 52 50 49 48 55 50 55 48 50 52 50 49 48 55 50 55 48 50 52 50 49 48 55 50 55 48 50 52 50 49 48 55 50 55 48 50 52 50 49 48 55 50 55 48 50 52 50 49 48 55 50 55 48 50 52 50 49 48 55 50 55 48 50 52 50 49 48 55 50 55 48 50 52 50 49 48 55 50 55 48 50 52 50 49 48 55 50 55 48 50 52 50 49 48 55 50 55 48 50 52 50 49 48 55 50 55 48 50 52 50 49 48 55 50 55 48 50 52 50 49 48 55 50 55 48 50 52 50 49 48 55 50 55 48 50 52 50 49 48 55 50 55 48 50 52 50 49 48 55 50 55 48 50 52 50 49 48 55 50 55 48 50 52 50 23 232 37 23 232 37 23 232 37 23 232 37 23 232 37 23 232 37 49 48 55 50 55 48 50 52 50 49 48 55 50 55 48 50 52 50 49 48 55 50 55 48 50 52 50 49 48 55 50 55 48 50 52 50 49 48 55 50 55 48 50 52 50 49 48 55 50 55 48 50 52 50 49 48 55 50 55 48 50 52 50 49 48 55 50 55 48 50 52 50 49 48 55 50 55 48 50 52 50 49 48 55 50 55 48 50 52 50 49 48 55 50 55 48 50 52 50 49 48 55 50 55 48 50 52 50 49 48 55 50 55 48 50 52 50 49 48 55 50 55 48 50 52 50 49 48 55 50 55 48 50 52 50 49 48 55 50 55 48 50 52 50 49 48 55 50 55 48 50 52 50 49 48 55 50 55 48 50 52 50 49 48 55 50 55 48 50 52 50 49 48 55 23 232 37 23 232 37 23 232 37 23 232 37 23 232 37 23 232 37 50 55 48 50 52 50 49 48 55 50 55 48 50 52 50 49 48 55 50 55 48 50 52 50 49 48 55 50 55 48 50 52 50 49 48 55 50 55 48 50 52 50 49 48 55 50 55 48 50 52 50 49 48 55 50 55 48 50 52 50 49 48 55 50 55 48 50 52 50 49 48 55 50 55 48 50 52 50 49 48 55 50 55 48 50 52 50 49 48 55 50 55 48 50 52 50 49 48 55 50 55 48 50 52 50 49 48 55 50 55 48 50 52 50 49 48 55 50 55 48 50 52 50 49 48 55 50 55 48 50 52 50 49 48 55 50 55 48 50 52 50 49 48 55 50 55 48 50 52 50 49 48 55 50 55 48 50 52 50 49 48 55 50 55 48 50 52 50 49 48 55 50 55 48 23 232 37 23 232 37 23 232 37 23 232 37 23 232 37 23 232 37 50 52 50 49 48 55 50 55 48 50 52 50 49 48 55 50 55 48 50 52 50 49 48 55 50 55 48 50 52 50 49 48 55 50 55 48 50 52 50 49 48 55 50 55 48 50 52 50 49 48 55 50 55 48 50 52 50 49 48 55 50 55 48 50 52 50 49 48 55 50 55 48 50 52 50 49 48 55 50 55 48 50 52 50 49 48 55 50 55 48 50 52 50 49 48 55 50 55 48 50 52 50 49 48 55 50 55 48 50 52 50 49 48 55 50 55 48 50 52 50 49 48 55 50 55 48 50 52 50 49 48 55 50 55 48 50 52 50 49 48 55 50 55 48 50 52 50 49 48 55 50 55 48 50 52 50 49 48 55 50 55 48 50 52 50 49 48 55 50 55 48 50 52 50 23 232 37 23 232 37 23 232 37 23 232 37 23 232 37 23 232 37 49 48 55 50 55 48 50 52 50 49 48 55 50 55 48 50 52 50 49 48 55 50 55 48 50 52 50 49 48 55 50 55 48 50 52 50 49 48 55 50 55 48 50 52 50 49 48 55 50 55 48 50 52 50 49 48 55 50 55 48 50 52 50 49 48 55 50 55 48 50 52 50 49 48 55 50 55 48 50 52 50 49 48 55 50 55 48 50 52 50 49 48 55 50 55 48 50 52 50 49 48 55 50 55 48 50 52 50 49 48 55 50 55 48 50 52 50 49 48 55 50 55 48 50 52 50 49 48 55 50 55 48 50 52 50 49 48 55 50 55 48 50 52 50 49 48 55 50 55 48 50 52 50 49 48 55 50 55 48 50 52 50 49 48 55 50 55 48 50 52 50 49 48 55 23 232 37 23 232 37 23 232 37 23 232 37 23 232 37 23 232 37 50 55 48 50 52 50 49 48 55 50 55 48 50 52 50 49 48 55 50 55 48 50 52 50 49 48 55 50 55 48 50 52 50 49 48 55 50 55 48 50 52 50 49 48 55 50 55 48 50 52 50 49 48 55 50 55 48 50 52 50 49 48 55 50 55 48 50 52 50 49 48 55 50 55 48 50 52 50 49 48 55 50 55 48 50 52 50 49 48 55 50 55 48 50 52 50 49 48 55 50 55 48 50 52 50 49 48 55 50 55 48 50 52 50 49 48 55 50 55 48 50 52 50 49 48 55 50 55 48 50 52 50 49 48 55 50 55 48 50 52 50 49 48 55 50 55 48 50 52 50 49 48 55 50 55 48 50 52 50 49 48 55 50 55 48 50 52 50 49 48 55 50 55 48 23 232 37 23 232 37 23 232 37 23 232 37 23 232 37 23 232 37 50 52 50 49 48 55 50 55 48 50 52 50 49 48 55 50 55 48 50 52 50 49 48 55 50 55 48 50 52 50 49 48 55 50 55 48 50 52 50 49 48 55 50 55 48 50 52 50 49 48 55 50 55 48 50 52 50 49 48 55 50 55 48 50 52 50 49 48 55 50 55 48 50 52 50 49 48 55 50 55 48 50 52 50 49 48 55 50 55 48 50 52 50 49 48 55 50 55 48 50 52 50 49 48 55 50 55 48 50 52 50 49 48 55 50 55 48 50 52 50 49 48 55 50 55 48 50 52 50 49 48 55 50 55 48 50 52 50 49 48 55 50 55 48 50 52 50 49 48 55 50 55 48 50 52 50 49 48 55 50 55 48 50 52 50 49 48 55 50 55 48 50 52 50 23 232 37 23 232 37 23 232 37 23 232 37 23 232 37 23 232 37 49 48 55 50 55 48 50 52 50 49 48 55 50 55 48 50 52 50 49 48 55 50 55 48 50 52 50 49 48 55 50 55 48 50 52 50 49 48 55 50 55 48 50 52 50 49 48 55 50 55 48 50 52 50 49 48 55 50 55 48 50 52 50 49 48 55 50 55 48 50 52 50 49 48 55 50 55 48 50 52 50 49 48 55 50 55 48 50 52 50 49 48 55 50 55 48 50 52 50 49 48 55 50 55 48 50 52 50 49 48 55 50 55 48 50 52 50 49 48 55 50 55 48 50 52 50 49 48 55 50 55 48 50 52 50 49 48 55 50 55 48 50 52 50 49 48 55 50 55 48 50 52 50 49 48 55 50 55 48 50 52 50 49 48 55 50 55 48 50 52 50 49 48 55 50 55 48 50 52 50 49 48 55 50 55 48 50 52 50 49 48 55 50 55 48 50 52 50 49 48 55 50 55 48 50 52 50 49 48 55 50 55 48 50 52 50 49 48 55 50 55 48 50 52 50 49 48 55 50 55 48 50 52 50 49 48 55 50 55 48 50 52 50 49 48 55 50 55 48 50 52 50 49 48 55 50 55 48 50 52 50 49 48 55 50 55 48 50 52 50 49 48 55 50 55 48 50 52 50 49 48 55 50 55 48 50 52 50 49 48 55 50 55 48 50 52 50 49 48 55 50 55 48 50 52 50 49 48 55 50 55 48 50 52 50 49 48 55 50 55 48 50 52 50 49 48 55 50 55 48 50 52 50 49 48 55 50 55 48 50 52 50 49 48 55 50 55 48 50 52 50 49 48 55 50 55 48 50 52 50 49 48 55 50 55 48 50 52 50 49 48 55 50 55 48 50 52 50 49 48 55 50 55 48 50 52 50 49 48 55 50 55 48 50 52 50 49 48 55 50 55 48 50 52 50 49 48 55 50 55 48 50 52 50 49 48 55 50 55 48 50 52 50 49 48 55 50 55 48 50 52 50 49 48 55 50 55 48 50 52 50 49 48 55 50 55 48 50 52 50 49 48 55 50 55 48 50 52 50 49 48 55 50 55 48 50 52 50 49 48 55 50 55 48 50 52 50 49 48 55 50 55 48 50 52 50 49 48 55 50 55 48 50 52 50 49 48 55 50 55 48 50 52 50 49 48 55 50 55 48 50 52 50 49 48 55 50 55 48 50 52 50 49 48 55 50 55 48 50 52 50 49 48 55 50 55 48 50 52 50 49 48 55 50 55 48 50 52 50 49 48 55 50 55 48 50 52 50 49 48 55 50 55 48 50 52 50 49 48 55 50 55 48 50 52 50 49 48 55 50 55 48 50 52 50 49 48 55 50 55 48 50 52 50 49 48 55 50 55 48 50 52 50 49 48 55 50 55 48 50 52 50 49 48 55 50 55 48 50 52 50 49 48 55 50 55 48 50 52 50 49 48 55 50 55 48 50 52 50 49 48 55 50 55 48 50 52 50 49 48 55 50 55 48 50 52 50 49 48 55 50 55 48 50 52 50 49 48 55 50 55 48 50 52 50 49 48 55 50 55 48 50 52 50 49 48 55 50 55 48 50 52 50 49 48 55 50 55 48 50 52 50 49 48 55 50 55 48 50 52 50 49 48 55 50 55 48 50 52 50 49 48 55 50 55 48 50 52 50 49 48 55 50 55 48 50 52 50 49 48 55 50 55 48 50 52 50 49 48 55 50 55 48 50 52 50 49 48 55 50 55 48 50 52 50 49 48 55 50 55 48 50 52 50 49 48 55 50 55 48 50 52 50 49 48 55 50 55 48 50 52 50 49 48 55 50 55 48 50 52 50 49 48 55 50 55 48 50 52 50 49 48 55 50 55 48 50 52 50 49 48 55 50 55 48 50 52 50 49 48 55 50 55 48 50 52 50 49 48 55 50 55 48 50 52 50 49 48 55 50 55 48 50 52 50 49 48 55 50 55 48 50 52 50 49 48 55 50 55 48 50 52 50 49 48 55 50 55 48 50 52 50 49 48 55 50 55 48 50 52 50 49 48 55 50 55 48 50 52 50 49 48 55 50 55 48 50 52 50 49 48 55 50 55 48 50 52 50 49 48 55 50 55 48 50 52 50 49 48 55 50 55 48 50 52 50 49 48 55 50 55 48 50 52 50 49 48 55 50 55 48 50 52 50 49 48 55 50 55 48 50 52 50 49 48 55 50 55 48 50 52 50 49 48 55 50 55 48 50 52 50 49 48 55 50 55 48 50 52 50 49 48 55 50 55 48 50 52 50 49 48 55 50 55 48 50 52 50 49 48 55 50 55 48 50 52 50 49 48 55 50 55 48 50 52 50 49 48 55 50 55 48 50 52 50 49 48 55 50 55 48 50 52 50 49 48 55 50 55 48 0 0 0 0 0 0 0 0 0 0 0 0 0 0 0 0 0 0 50 52 50 49 48 55 50 55 48 50 52 50 49 48 55 50 55 48 50 52 50 49 48 55 50 55 48 50 52 50 49 48 55 50 55 48 50 52 50 49 48 55 50 55 48 50 52 50 49 48 55 50 55 48 50 52 50 49 48 55 50 55 48 50 52 50 49 48 55 50 55 48 50 52 50 49 48 55 50 55 48 50 52 50 49 48 55 50 55 48 50 52 50 49 48 55 50 55 48 50 52 50 49 48 55 50 55 48 50 52 50 49 48 55 50 55 48 50 52 50 49 48 55 50 55 48 50 52 50 49 48 55 50 55 48 50 52 50 49 48 55 50 55 48 50 52 50 49 48 55 50 55 48 50 52 50 49 48 55 50 55 48 50 52 50 49 48 55 50 55 48 50 52 50 0 0 0 0 0 0 0 0 0 0 0 0 0 0 0 0 0 0 49 48 55 50 55 48 50 52 50 49 48 55 50 55 48 50 52 50 49 48 55 50 55 48 50 52 50 49 48 55 50 55 48 50 52 50 49 48 55 50 55 48 50 52 50 49 48 55 50 55 48 50 52 50 49 48 55 50 55 48 50 52 50 49 48 55 50 55 48 50 52 50 49 48 55 50 55 48 50 52 50 49 48 55 50 55 48 50 52 50 49 48 55 50 55 48 50 52 50 49 48 55 50 55 48 50 52 50 49 48 55 50 55 48 50 52 50 49 48 55 50 55 48 50 52 50 49 48 55 50 55 48 50 52 50 49 48 55 50 55 48 50 52 50 49 48 55 50 55 48 50 52 50 49 48 55 50 55 48 50 52 50 49 48 55 50 55 48 50 52 50 49 48 55 0 0 0 0 0 0 0 0 0 0 0 0 0 0 0 0 0 0 50 55 48 50 52 50 49 48 55 50 55 48 50 52 50 49 48 55 50 55 48 50 52 50 49 48 55 50 55 48 50 52 50 49 48 55 50 55 48 50 52 50 49 48 55 50 55 48 50 52 50 49 48 55 50 55 48 50 52 50 49 48 55 50 55 48 50 52 50 49 48 55 50 55 48 50 52 50 49 48 55 50 55 48 50 52 50 49 48 55 50 55 48 50 52 50 49 48 55 50 55 48 50 52 50 49 48 55 50 55 48 50 52 50 49 48 55 50 55 48 50 52 50 49 48 55 50 55 48 50 52 50 49 48 55 50 55 48 50 52 50 49 48 55 50 55 48 50 52 50 49 48 55 50 55 48 50 52 50 49 48 55 50 55 48 50 52 50 49 48 55 50 55 48 0 0 0 0 0 0 0 0 0 0 0 0 0 0 0 0 0 0 50 52 50 49 48 55 50 55 48 50 52 50 49 48 55 50 55 48 50 52 50 49 48 55 50 55 48 50 52 50 49 48 55 50 55 48 50 52 50 49 48 55 50 55 48 50 52 50 49 48 55 50 55 48 50 52 50 49 48 55 50 55 48 50 52 50 49 48 55 50 55 48 50 52 50 49 48 55 50 55 48 50 52 50 49 48 55 50 55 48 50 52 50 49 48 55 50 55 48 50 52 50 49 48 55 50 55 48 50 52 50 49 48 55 50 55 48 50 52 50 49 48 55 50 55 48 50 52 50 49 48 55 50 55 48 50 52 50 49 48 55 50 55 48 50 52 50 49 48 55 50 55 48 50 52 50 49 48 55 50 55 48 50 52 50 49 48 55 50 55 48 50 52 50 0 0 0 0 0 0 0 0 0 0 0 0 0 0 0 0 0 0 49 48 55 50 55 48 50 52 50 49 48 55 50 55 48 50 52 50 49 48 55 50 55 48 50 52 50 49 48 55 50 55 48 50 52 50 49 48 55 50 55 48 50 52 50 49 48 55 50 55 48 50 52 50 49 48 55 50 55 48 50 52 50 49 48 55 50 55 48 50 52 50 49 48 55 50 55 48 50 52 50 49 48 55 50 55 48 50 52 50 49 48 55 50 55 48 50 52 50 49 48 55 50 55 48 50 52 50 49 48 55 50 55 48 50 52 50 49 48 55 50 55 48 50 52 50 49 48 55 50 55 48 50 52 50 49 48 55 50 55 48 50 52 50 49 48 55 50 55 48 50 52 50 49 48 55 50 55 48 50 52 50 49 48 55 50 55 48 50 52 50 49 48 55 0 0 0 0 0 0 0 0 0 0 0 0 0 0 0 0 0 0 50 55 48 50 52 50 49 48 55 50 55 48 50 52 50 49 48 55 50 55 48 50 52 50 49 48 55 50 55 48 50 52 50 49 48 55 50 55 48 50 52 50 49 48 55 50 55 48 50 52 50 49 48 55 50 55 48 50 52 50 49 48 55 50 55 48 50 52 50 49 48 55 50 55 48 50 52 50 49 48 55 50 55 48 50 52 50 49 48 55 50 55 48 50 52 50 49 48 55 50 55 48 50 52 50 49 48 55 50 55 48 50 52 50 49 48 55 50 55 48 50 52 50 49 48 55 50 55 48 50 52 50 49 48 55 50 55 48 50 52 50 49 48 55 50 55 48 50 52 50 49 48 55 50 55 48 50 52 50 49 48 55 50 55 48 50 52 50 49 48 55 50 55 48 0 0 0 0 0 0 0 0 0 0 0 0 0 0 0 0 0 0 50 52 50 49 48 55 50 55 48 50 52 50 49 48 55 50 55 48 50 52 50 49 48 55 50 55 48 50 52 50 49 48 55 50 55 48 50 52 50 49 48 55 50 55 48 50 52 50 49 48 55 50 55 48 50 52 50 49 48 55 50 55 48 50 52 50 49 48 55 50 55 48 50 52 50 49 48 55 50 55 48 50 52 50 49 48 55 50 55 48 50 52 50 49 48 55 50 55 48 50 52 50 49 48 55 50 55 48 50 52 50 49 48 55 50 55 48 50 52 50 49 48 55 50 55 48 50 52 50 49 48 55 50 55 48 50 52 50 49 48 55 50 55 48 50 52 50 49 48 55 50 55 48 50 52 50 49 48 55 50 55 48 50 52 50 49 48 55 50 55 48 50 52 50 0 0 0 0 0 0 0 0 0 0 0 0 0 0 0 0 0 0 49 48 55 50 55 48 50 52 50 49 48 55 50 55 48 50 52 50 49 48 55 50 55 48 50 52 50 49 48 55 50 55 48 50 52 50 49 48 55 50 55 48 50 52 50 49 48 55 50 55 48 50 52 50 49 48 55 50 55 48 50 52 50 49 48 55 50 55 48 50 52 50 49 48 55 50 55 48 50 52 50 49 48 55 50 55 48 50 52 50 49 48 55 50 55 48 50 52 50 49 48 55 50 55 48 50 52 50 49 48 55 50 55 48 50 52 50 49 48 55 50 55 48 50 52 50 49 48 55 50 55 48 50 52 50 49 48 55 50 55 48 50 52 50 49 48 55 50 55 48 50 52 50 49 48 55 50 55 48 50 52 50 49 48 55 50 55 48 50 52 50 49 48 55 0 0 0 0 0 0 0 0 0 0 0 0 0 0 0 0 0 0 50 55 48 50 52 50 49 48 55 50 55 48 50 52 50 49 48 55 50 55 48 50 52 50 49 48 55 50 55 48 50 52 50 49 48 55 50 55 48 50 52 50 49 48 55 50 55 48 50 52 50 49 48 55 50 55 48 50 52 50 49 48 55 50 55 48 50 52 50 49 48 55 50 55 48 50 52 50 49 48 55 50 55 48 50 52 50 49 48 55 50 55 48 50 52 50 49 48 55 50 55 48 50 52 50 49 48 55 50 55 48 50 52 50 49 48 55 50 55 48 50 52 50 49 48 55 50 55 48 50 52 50 49 48 55 50 55 48 50 52 50 49 48 55 50 55 48 50 52 50 49 48 55 50 55 48 50 52 50 49 48 55 50 55 48 50 52 50 49 48 55 50 55 48 0 0 0 0 0 0 0 0 0 0 0 0 0 0 0 0 0 0 50 52 50 49 48 55 50 55 48 50 52 50 49 48 55 50 55 48 50 52 50 49 48 55 50 55 48 50 52 50 49 48 55 50 55 48 50 52 50 49 48 55 50 55 48 50 52 50 49 48 55 50 55 48 50 52 50 49 48 55 50 55 48 50 52 50 49 48 55 50 55 48 50 52 50 49 48 55 50 55 48 50 52 50 49 48 55 50 55 48 50 52 50 49 48 55 50 55 48 50 52 50 49 48 55 50 55 48 50 52 50 49 48 55 50 55 48 50 52 50 49 48 55 50 55 48 50 52 50 49 48 55 50 55 48 50 52 50 49 48 55 50 55 48 50 52 50 49 48 55 50 55 48 50 52 50 49 48 55 50 55 48 50 52 50 49 48 55 50 55 48 50 52 50 0 0 0 0 0 0 0 0 0 0 0 0 0 0 0 0 0 0 49 48 55 50 55 48 50 52 50 49 48 55 50 55 48 50 52 50 49 48 55 50 55 48 50 52 50 49 48 55 50 55 48 50 52 50 49 48 55 50 55 48 50 52 50 49 48 55 50 55 48 50 52 50 49 48 55 50 55 48 50 52 50 49 48 55 50 55 48 50 52 50 49 48 55 50 55 48 50 52 50 49 48 55 50 55 48 50 52 50 49 48 55 50 55 48 50 52 50 49 48 55 50 55 48 50 52 50 49 48 55 50 55 48 50 52 50 49 48 55 50 55 48 50 52 50 49 48 55 50 55 48 50 52 50 49 48 55 50 55 48 50 52 50 49 48 55 50 55 48 50 52 50 49 48 55 50 55 48 50 52 50 49 48 55 50 55 48 50 52 50 49 48 55 0 0 0 0 0 0 0 0 0 0 0 0 0 0 0 0 0 0 50 55 48 50 52 50 49 48 55 50 55 48 50 52 50 49 48 55 50 55 48 50 52 50 49 48 55 50 55 48 50 52 50 49 48 55 50 55 48 50 52 50 49 48 55 50 55 48 50 52 50 49 48 55 50 55 48 50 52 50 49 48 55 50 55 48 50 52 50 49 48 55 50 55 48 50 52 50 49 48 55 50 55 48 50 52 50 49 48 55 50 55 48 50 52 50 49 48 55 50 55 48 50 52 50 49 48 55 50 55 48 50 52 50 48 48 48 49 48 55 50 55 48 50 52 50 49 48 55 50 55 48 50 52 50 49 48 55 50 55 48 50 52 50 49 48 55 50 55 48 50 52 50 49 48 55 50 55 48 50 52 50 49 48 55 50 55 48 50 52 50 49 48 55 0 0 0 0 0 0 0 0 0 0 0 0 0 0 0 0 0 0 50 55 48 50 52 50 49 48 55 50 55 48 50 52 50 49 48 55 50 55 48 50 52 50 49 48 55 50 55 48 50 52 50 49 48 55 50 55 48 50 52 50 49 48 55 50 55 48 50 52 50 49 48 55 50 55 48 50 52 50 49 48 55 50 55 48 50 52 50 49 48 55 50 55 48 50 52 50 49 48 55 50 55 48 50 52 50 49 48 55 50 55 48 50 52 50 49 48 55 50 55 48 50 52 50 49 48 55 50 55 48 50 52 50 49 48 55 50 55 48 50 52 50 49 48 55 50 55 48 50 52 50 49 48 55 50 55 48 50 52 50 49 48 55 50 55 48 50 52 50 49 48 55 50 55 48 50 52 50 49 48 55 50 55 48 50 52 50 49 48 55 50 55 48 0 0 0 0 0 0 0 0 0 0 0 0 0 0 0 0 0 0 50 52 50 49 48 55 50 55 48 50 52 50 49 48 55 50 55 48 50 52 50 49 48 55 50 55 48 50 52 50 49 48 55 50 55 48 50 52 50 49 48 55 50 55 48 50 52 50 49 48 55 50 55 48 50 52 50 49 48 55 50 55 48 50 52 50 49 48 55 50 55 48 50 52 50 49 48 55 50 55 48 50 52 50 49 48 55 50 55 48 50 52 50 49 48 55 50 55 48 50 52 50 49 48 55 50 55 48 50 52 50 49 48 55 50 55 48 50 52 50 49 48 55 50 55 48 50 52 50 49 48 55 50 55 48 50 52 50 49 48 55 50 55 48 50 52 50 49 48 55 50 55 48 50 52 50 49 48 55 50 55 48 50 52 50 49 48 55 50 55 48 50 52 50 0 0 0 0 0 0 0 0 0 0 0 0 0 0 0 0 0 0 49 48 55 50 55 48 50 52 50 49 48 55 50 55 48 50 52 50 49 48 55 50 55 48 50 52 50 49 48 55 50 55 48 50 52 50 49 48 55 50 55 48 50 52 50 49 48 55 50 55 48 50 52 50 49 48 55 50 55 48 50 52 50 49 48 55 50 55 48 50 52 50 49 48 55 50 55 48 50 52 50 49 48 55 50 55 48 50 52 50 49 48 55 50 55 48 50 52 50 49 48 55 50 55 48 50 52 50 49 48 55 50 55 48 50 52 50 49 48 55 50 55 48 50 52 50 49 48 55 50 55 48 50 52 50 49 48 55 50 55 48 50 52 50 49 48 55 50 55 48 50 52 50 49 48 55 50 55 48 50 52 50 49 48 55 50 55 48 50 52 50 49 48 55 0 0 0 0 0 0 0 0 0 0 0 0 0 0 0 0 0 0 50 55 48 50 52 50 49 48 55 50 55 48 50 52 50 49 48 55 50 55 48 50 52 50 49 48 55 50 55 48 50 52 50 49 48 55 50 55 48 50 52 50 49 48 55 50 55 48 50 52 50 49 48 55 50 55 48 50 52 50 49 48 55 50 55 48 50 52 50 49 48 55 50 55 48 50 52 50 49 48 55 50 55 48 50 52 50 49 48 55 50 55 48 50 52 50 49 48 55 50 55 48 50 52 50 49 48 55 50 55 48 50 52 50 49 48 55 50 55 48 50 52 50 49 48 55 50 55 48 50 52 50 49 48 55 50 55 48 50 52 50 49 48 55 50 55 48 50 52 50 49 48 55 50 55 48 50 52 50 49 48 55 50 55 48 50 52 50 49 48 55 50 55 48 0 0 0 0 0 0 0 0 0 0 0 0 0 0 0 0 0 0 50 52 50 49 48 55 50 55 48 50 52 50 49 48 55 50 55 48 50 52 50 49 48 55 50 55 48 50 52 50 49 48 55 50 55 48 50 52 50 49 48 55 50 55 48 50 52 50 49 48 55 50 55 48 50 52 50 49 48 55 50 55 48 50 52 50 49 48 55 50 55 48 50 52 50 49 48 55 50 55 48 50 52 50 49 48 55 50 55 48 50 52 50 49 48 55 50 55 48 50 52 50 49 48 55 50 55 48 50 52 50 49 48 55 50 55 48 50 52 50 49 48 55 50 55 48 50 52 50 49 48 55 50 55 48 50 52 50 49 48 55 50 55 48 50 52 50 49 48 55 50 55 48 50 52 50 49 48 55 50 55 48 50 52 50 49 48 55 50 55 48 50 52 50 0 0 0 0 0 0 0 0 0 0 0 0 0 0 0 0 0 0 49 48 55 50 55 48 50 52 50 49 48 55 50 55 48 50 52 50 49 48 55 50 55 48 50 52 50 49 48 55 50 55 48 50 52 50 49 48 55 50 55 48 50 52 50 49 48 55 50 55 48 50 52 50 49 48 55 50 55 48 50 52 50 49 48 55 50 55 48 50 52 50 49 48 55 50 55 48 50 52 50 49 48 55 50 55 48 50 52 50 49 48 55 50 55 48 50 52 50 49 48 55 50 55 48 50 52 50 49 48 55 50 55 48 50 52 50 49 48 55 50 55 48 50 52 50 49 48 55 50 55 48 50 52 50 49 48 55 50 55 48 50 52 50 49 48 55 50 55 48 50 52 50 49 48 55 50 55 48 50 52 50 49 48 55 50 55 48 50 52 50 49 48 55 0 0 0 0 0 0 0 0 0 0 0 0 0 0 0 0 0 0 50 55 48 50 52 50 49 48 55 50 55 48 50 52 50 49 48 55 50 55 48 50 52 50 49 48 55 50 55 48 50 52 50 49 48 55 50 55 48 50 52 50 49 48 55 50 55 48 50 52 50 49 48 55 50 55 48 50 52 50 49 48 55 50 55 48 50 52 50 49 48 55 50 55 48 50 52 50 49 48 55 50 55 48 50 52 50 49 48 55 50 55 48 50 52 50 49 48 55 50 55 48 50 52 50 49 48 55 50 55 48 50 52 50 49 48 55 50 55 48 50 52 50 49 48 55 50 55 48 50 52 50 49 48 55 50 55 48 50 52 50 49 48 55 50 55 48 50 52 50 49 48 55 50 55 48 50 52 50 49 48 55 50 55 48 50 52 50 49 48 55 50 55 48 0 0 0 0 0 0 0 0 0 0 0 0 0 0 0 0 0 0 50 52 50 49 48 55 50 55 48 50 52 50 49 48 55 50 55 48 50 52 50 49 48 55 50 55 48 50 52 50 49 48 55 50 55 48 50 52 50 49 48 55 50 55 48 50 52 50 49 48 55 50 55 48 50 52 50 49 48 55 50 55 48 50 52 50 49 48 55 50 55 48 50 52 50 49 48 55 50 55 48 50 52 50 49 48 55 50 55 48 50 52 50 49 48 55 50 55 48 50 52 50 49 48 55 50 55 48 50 52 50 49 48 55 50 55 48 50 52 50 49 48 55 50 55 48 50 52 50 49 48 55 50 55 48 50 52 50 49 48 55 50 55 48 50 52 50 49 48 55 50 55 48 50 52 50 49 48 55 50 55 48 50 52 50 49 48 55 50 55 48 50 52 50 0 0 0 0 0 0 0 0 0 0 0 0 0 0 0 0 0 0 49 48 55 50 55 48 50 52 50 49 48 55 50 55 48 50 52 50 49 48 55 50 55 48 50 52 50 49 48 55 50 55 48 50 52 50 49 48 55 50 55 48 50 52 50 49 48 55 50 55 48 50 52 50 49 48 55 50 55 48 50 52 50 49 48 55 50 55 48 50 52 50 49 48 55 50 55 48 50 52 50 49 48 55 50 55 48 50 52 50 49 48 55 50 55 48 50 52 50 49 48 55 50 55 48 50 52 50 49 48 55 50 55 48 50 52 50 49 48 55 50 55 48 50 52 50 49 48 55 50 55 48 50 52 50 49 48 55 50 55 48 50 52 50 49 48 55 50 55 48 50 52 50 49 48 55 50 55 48 50 52 50 49 48 55 50 55 48 50 52 50 49 48 55 0 0 0 0 0 0 0 0 0 0 0 0 0 0 0 0 0 0 50 55 48 50 52 50 49 48 55 50 55 48 50 52 50 49 48 55 50 55 48 50 52 50 49 48 55 50 55 48 50 52 50 49 48 55 50 55 48 50 52 50 49 48 55 50 55 48 50 52 50 49 48 55 50 55 48 50 52 50 49 48 55 50 55 48 50 52 50 49 48 55 50 55 48 50 52 50 49 48 55 50 55 48 50 52 50 49 48 55 50 55 48 50 52 50 49 48 55 50 55 48 50 52 50 49 48 55 50 55 48 50 52 50 49 48 55 50 55 48 50 52 50 49 48 55 50 55 48 50 52 50 49 48 55 50 55 48 50 52 50 49 48 55 50 55 48 50 52 50 49 48 55 50 55 48 50 52 50 49 48 55 50 55 48 50 52 50 49 48 55 50 55 48 0 0 0 0 0 0 0 0 0 0 0 0 0 0 0 0 0 0 50 52 50 49 48 55 50 55 48 50 52 50 49 48 55 50 55 48 50 52 50 49 48 55 50 55 48 50 52 50 49 48 55 50 55 48 50 52 50 49 48 55 50 55 48 50 52 50 49 48 55 50 55 48 50 52 50 49 48 55 50 55 48 50 52 50 49 48 55 50 55 48 50 52 50 49 48 55 50 55 48 50 52 50 49 48 55 50 55 48 50 52 50 49 48 55 50 55 48 50 52 50 49 48 55 50 55 48 50 52 50 49 48 55 50 55 48 50 52 50 49 48 55 50 55 48 50 52 50 49 48 55 50 55 48 50 52 50 49 48 55 50 55 48 50 52 50 49 48 55 50 55 48 50 52 50 49 48 55 50 55 48 50 52 50 49 48 55 50 55 48 50 52 50 0 0 0 0 0 0 0 0 0 0 0 0 0 0 0 0 0 0 49 48 55 50 55 48 50 52 50 49 48 55 50 55 48 50 52 50 49 48 55 50 55 48 50 52 50 49 48 55 50 55 48 50 52 50 49 48 55 50 55 48 50 52 50 49 48 55 50 55 48 50 52 50 49 48 55 50 55 48 50 52 50 49 48 55 50 55 48 50 52 50 49 48 55 50 55 48 50 52 50 49 48 55 50 55 48 50 52 50 49 48 55 50 55 48 50 52 50 49 48 55 50 55 48 50 52 50 49 48 55 50 55 48 50 52 50 49 48 55 50 55 48 50 52 50 49 48 55 50 55 48 50 52 50 49 48 55 50 55 48 50 52 50 49 48 55 50 55 48 50 52 50 49 48 55 50 55 48 50 52 50 49 48 55 50 55 48 50 52 50 49 48 55 0 0 0 0 0 0 0 0 0 0 0 0 0 0 0 0 0 0 50 55 48 50 52 50 49 48 55 50 55 48 50 52 50 49 48 55 50 55 48 50 52 50 49 48 55 50 55 48 50 52 50 49 48 55 50 55 48 50 52 50 49 48 55 50 55 48 50 52 50 49 48 55 50 55 48 50 52 50 49 48 55 50 55 48 50 52 50 49 48 55 50 55 48 50 52 50 49 48 55 50 55 48 50 52 50 49 48 55 50 55 48 50 52 50 49 48 55 50 55 48 50 52 50 49 48 55 50 55 48 50 52 50 49 48 55 50 55 48 50 52 50 49 48 55 50 55 48 50 52 50 49 48 55 50 55 48 50 52 50 49 48 55 50 55 48 50 52 50 49 48 55 50 55 48 50 52 50 49 48 55 50 55 48 50 52 50 49 48 55 50 55 48 0 0 0 0 0 0 0 0 0 0 0 0 0 0 0 0 0 0 50 52 50 49 48 55 50 55 48 50 52 50 49 48 55 50 55 48 50 52 50 49 48 55 50 55 48 50 52 50 49 48 55 50 55 48 50 52 50 49 48 55 50 55 48 50 52 50 49 48 55 50 55 48 50 52 50 49 48 55 50 55 48 50 52 50 49 48 55 50 55 48 50 52 50 49 48 55 50 55 48 50 52 50 49 48 55 50 55 48 50 52 50 49 48 55 50 55 48 50 52 50 49 48 55 50 55 48 50 52 50 49 48 55 50 55 48 50 52 50 49 48 55 50 55 48 50 52 50 49 48 55 50 55 48 50 52 50 49 48 55 50 55 48 50 52 50 49 48 55 50 55 48 50 52 50 49 48 55 50 55 48 50 52 50 49 48 55 50 55 48 50 52 50 0 0 0 0 0 0 0 0 0 0 0 0 0 0 0 0 0 0 49 48 55 50 55 48 50 52 50 49 48 55 50 55 48 50 52 50 49 48 55 50 55 48 50 52 50 49 48 55 50 55 48 50 52 50 49 48 55 50 55 48 50 52 50 49 48 55 50 55 48 50 52 50 49 48 55 50 55 48 50 52 50 49 48 55 50 55 48 50 52 50 49 48 55 50 55 48 50 52 50 49 48 55 50 55 48 50 52 50 49 48 55 50 55 48 50 52 50 49 48 55 50 55 48 50 52 50 49 48 55 50 55 48 50 52 50 49 48 55 50 55 48 50 52 50 49 48 55 50 55 48 50 52 50 49 48 55 50 55 48 50 52 50 49 48 55 50 55 48 50 52 50 49 48 55 50 55 48 50 52 50 49 48 55 50 55 48 50 52 50 49 48 55 0 0 0 0 0 0 0 0 0 0 0 0 0 0 0 0 0 0 50 55 48 50 52 50 49 48 55 50 55 48 50 52 50 49 48 55 50 55 48 50 52 50 49 48 55 50 55 48 50 52 50 49 48 55 50 55 48 50 52 50 49 48 55 50 55 48 50 52 50 49 48 55 50 55 48 50 52 50 49 48 55 50 55 48 50 52 50 49 48 55 50 55 48 50 52 50 49 48 55 50 55 48 50 52 50 49 48 55 50 55 48 50 52 50 49 48 55 50 55 48 50 52 50 49 48 55 50 55 48 50 52 50 49 48 55 50 55 48 50 52 50 49 48 55 50 55 48 50 52 50 49 48 55 50 55 48 50 52 50 49 48 55 50 55 48 50 52 50 49 48 55 50 55 48 50 52 50 49 48 55 50 55 48 50 52 50 49 48 55 50 55 48 0 0 0 0 0 0 0 0 0 0 0 0 0 0 0 0 0 0 50 52 50 49 48 55 50 55 48 50 52 50 49 48 55 50 55 48 50 52 50 49 48 55 50 55 48 50 52 50 49 48 55 50 55 48 50 52 50 49 48 55 50 55 48 50 52 50 49 48 55 50 55 48 50 52 50 49 48 55 50 55 48 50 52 50 49 48 55 50 55 48 50 52 50 49 48 55 50 55 48 50 52 50 49 48 55 50 55 48 50 52 50 49 48 55 50 55 48 50 52 50 49 48 55 50 55 48 50 52 50 49 48 55 50 55 48 50 52 50 49 48 55 50 55 48 50 52 50 49 48 55 50 55 48 50 52 50 49 48 55 50 55 48 50 52 50 49 48 55 50 55 48 50 52 50 49 48 55 50 55 48 50 52 50 49 48 55 50 55 48 50 52 50 49 48 55 50 55 48 50 52 50 49 48 55 50 55 48 50 52 50 49 48 55 50 55 48 50 52 50 49 48 55 50 55 48 50 52 50 49 48 55 50 55 48 50 52 50 49 48 55 50 55 48 50 52 50 49 48 55 50 55 48 50 52 50 49 48 55 50 55 48 50 52 50 49 48 55 50 55 48 